<?xml version="1.0" encoding="iso-8859-1"?>
<!-- Generator: Adobe Illustrator 19.0.0, SVG Export Plug-In . SVG Version: 6.00 Build 0)  -->
<svg version="1.1" id="Layer_1" xmlns="http://www.w3.org/2000/svg" xmlns:xlink="http://www.w3.org/1999/xlink" x="0px" y="0px"
	 viewBox="0 0 512 512" style="enable-background:new 0 0 512 512;" xml:space="preserve">
<g>
	<g>
		<g>
			<path d="M191.13,104.002c2.034,0,4.07-0.776,5.622-2.329l21.136-21.137c3.105-3.105,3.105-8.139,0-11.243
				c-3.106-3.105-8.139-3.105-11.244,0L185.507,90.43c-3.105,3.105-3.105,8.139,0,11.243
				C187.06,103.226,189.095,104.002,191.13,104.002z"/>
			<path d="M156.149,108.695c4.392,0,7.95-3.56,7.95-7.95V51.671c0-4.391-3.559-7.95-7.95-7.95c-4.392,0-7.95,3.56-7.95,7.95v49.074
				C148.199,105.135,151.758,108.695,156.149,108.695z"/>
			<path d="M186.436,138.982h49.075c4.392,0,7.95-3.56,7.95-7.95s-3.559-7.95-7.95-7.95h-49.075c-4.392,0-7.95,3.56-7.95,7.95
				S182.044,138.982,186.436,138.982z"/>
			<path d="M196.751,160.391c-3.105-3.105-8.138-3.106-11.244,0c-3.105,3.105-3.105,8.139,0,11.243l21.136,21.137
				c1.553,1.553,3.587,2.329,5.622,2.329c2.034,0,4.07-0.776,5.622-2.329c3.105-3.105,3.105-8.139,0-11.243L196.751,160.391z"/>
			<path d="M164.1,210.394V161.32c0-4.391-3.559-7.95-7.95-7.95c-4.392,0-7.95,3.56-7.95,7.95v49.074c0,4.391,3.559,7.95,7.95,7.95
				C160.54,218.344,164.1,214.785,164.1,210.394z"/>
			<path d="M424.171,371.133V261.605c35.234-3.965,62.712-33.929,62.712-70.203c0-38.964-31.698-70.663-70.662-70.663
				c-38.963,0-70.661,31.699-70.661,70.663c0,36.275,27.479,66.239,62.711,70.203v109.529
				c-32.621,3.671-58.581,29.632-62.252,62.253H226.354c-3.671-32.621-29.632-58.582-62.254-62.253V261.816
				c68.562-4.125,123.08-61.203,123.08-130.784C287.18,58.78,228.4,0,156.149,0C83.898,0,25.117,58.78,25.117,131.032
				c0,69.581,54.519,126.659,123.081,130.784v109.318c-35.234,3.965-62.712,33.929-62.712,70.203
				c0,38.964,31.698,70.663,70.662,70.663c36.275,0,66.24-27.479,70.204-62.713h119.666C349.983,484.521,379.946,512,416.221,512
				c38.964,0,70.662-31.699,70.662-70.663C486.883,405.063,459.404,375.099,424.171,371.133z M41.017,131.032
				c0-63.484,51.648-115.131,115.132-115.131s115.13,51.647,115.13,115.131s-51.647,115.131-115.13,115.131
				S41.017,194.517,41.017,131.032z M156.149,496.099c-30.195,0-54.762-24.566-54.762-54.763c0-30.195,24.566-54.762,54.762-54.762
				c30.196,0,54.763,24.566,54.763,54.762C210.912,471.533,186.346,496.099,156.149,496.099z M361.459,191.401
				c0-30.196,24.565-54.763,54.761-54.763s54.762,24.566,54.762,54.763c0,30.196-24.566,54.763-54.762,54.763
				S361.459,221.597,361.459,191.401z M416.221,496.099c-30.195,0-54.761-24.566-54.761-54.763
				c0-30.195,24.565-54.762,54.761-54.762s54.762,24.566,54.762,54.762C470.983,471.533,446.416,496.099,416.221,496.099z"/>
			<path d="M125.861,123.081H76.787c-4.392,0-7.95,3.56-7.95,7.95s3.559,7.95,7.95,7.95h49.075c4.392,0,7.95-3.56,7.95-7.95
				C133.811,126.641,130.253,123.081,125.861,123.081z"/>
			<path d="M115.547,160.391L94.41,181.528c-3.105,3.105-3.105,8.139,0,11.243c1.553,1.552,3.588,2.329,5.622,2.329
				c2.034,0,4.069-0.776,5.622-2.329l21.136-21.137c3.105-3.105,3.105-8.139,0-11.243
				C123.686,157.286,118.653,157.286,115.547,160.391z"/>
			<path d="M115.547,101.674c1.553,1.553,3.587,2.329,5.622,2.329c2.034,0,4.07-0.776,5.622-2.329c3.105-3.105,3.105-8.139,0-11.243
				l-21.137-21.138c-3.106-3.105-8.139-3.105-11.244,0s-3.105,8.139,0,11.243L115.547,101.674z"/>
		</g>
	</g>
</g>
<g>
</g>
<g>
</g>
<g>
</g>
<g>
</g>
<g>
</g>
<g>
</g>
<g>
</g>
<g>
</g>
<g>
</g>
<g>
</g>
<g>
</g>
<g>
</g>
<g>
</g>
<g>
</g>
<g>
</g>
</svg>
