<svg xmlns="http://www.w3.org/2000/svg" height="613pt" version="1.1" viewBox="0 -5 613.75222 613" width="613pt">
<g id="surface1">
<path d="M 276.636719 209.1875 C 281.796875 215.503906 288.773438 220.082031 296.628906 222.292969 C 303.679688 224.253906 311.132812 224.253906 318.183594 222.292969 C 326.15625 220.035156 333.226562 215.347656 338.402344 208.875 C 349.421875 195.300781 350.335938 176.140625 340.664062 161.570312 C 331.140625 147.421875 313.699219 140.875 297.222656 145.257812 C 280.742188 149.632812 268.859375 163.988281 267.621094 180.988281 L 267.417969 183.773438 C 267.390625 190.59375 269.109375 197.308594 272.417969 203.277344 C 273.640625 205.371094 275.058594 207.347656 276.636719 209.1875 Z M 287.628906 182.199219 C 288.339844 171.808594 296.988281 163.757812 307.398438 163.78125 C 314.105469 163.78125 320.371094 167.121094 324.113281 172.683594 C 328.863281 179.921875 328.414062 189.394531 323 196.152344 C 320.402344 199.445312 316.847656 201.847656 312.816406 203.019531 C 305.222656 205.1875 297.066406 202.621094 292.089844 196.496094 C 291.25 195.527344 290.492188 194.492188 289.839844 193.394531 C 288.308594 190.636719 287.476562 187.550781 287.417969 184.402344 Z M 287.628906 182.199219 " style=" stroke:none;fill-rule:nonzero;fill:rgb(0%,0%,0%);fill-opacity:1;" />
<path d="M 372.363281 230.183594 C 380.699219 218.621094 385.761719 205.023438 387.011719 190.824219 L 503.808594 159.484375 L 539.9375 232.632812 L 613.753906 212.753906 L 606.496094 100.953125 L 556.800781 0.375 L 483.109375 20.222656 L 488.304688 101.574219 L 369.367188 133.417969 C 349.535156 108.929688 317.144531 98.40625 286.707031 106.570312 C 256.269531 114.734375 233.488281 140.050781 228.570312 171.175781 L 0 232.375 L 15.582031 290.34375 L 40.257812 283.71875 L 104.507812 523.59375 L 7.554688 523.59375 L 7.554688 603.554688 L 607.242188 603.554688 L 607.242188 523.59375 L 450.996094 523.59375 Z M 258.585938 247.042969 C 259.585938 247.785156 260.582031 248.386719 261.582031 249.046875 C 262.78125 249.894531 263.972656 250.722656 265.222656 251.503906 C 267.320312 252.8125 269.488281 253.972656 271.707031 255.09375 C 272.917969 255.703125 274.085938 256.351562 275.324219 256.902344 C 275.714844 257.074219 276.066406 257.300781 276.449219 257.457031 L 205.171875 523.59375 L 184.464844 523.59375 Z M 295.726562 262.828125 C 303.460938 264.027344 311.335938 264.027344 319.070312 262.828125 L 388.929688 523.59375 L 225.875 523.59375 Z M 338.34375 257.492188 C 338.734375 257.332031 339.082031 257.09375 339.472656 256.933594 C 340.691406 256.390625 341.863281 255.730469 343.054688 255.132812 C 345.257812 254.023438 347.429688 252.871094 349.53125 251.5625 C 350.816406 250.761719 352.039062 249.902344 353.277344 249.035156 C 354.273438 248.355469 355.273438 247.777344 356.214844 247.035156 L 430.335938 523.59375 L 409.625 523.59375 Z M 546.144531 23.941406 L 586.804688 106.25 L 592.742188 197.734375 L 550.601562 209.066406 L 523.507812 154.191406 L 523.574219 154.191406 L 509.945312 126.800781 L 504.097656 35.273438 Z M 489.601562 121.890625 L 490.253906 132.007812 L 494.78125 141.171875 L 386.257812 170.328125 C 385.6875 166.949219 384.890625 163.605469 383.890625 160.332031 C 383.710938 159.75 383.4375 159.203125 383.253906 158.625 C 382.414062 156.105469 381.550781 153.625 380.460938 151.148438 Z M 307.398438 123.804688 C 340.3125 123.714844 367.105469 150.230469 367.367188 183.136719 L 367.367188 183.773438 C 367.253906 200.773438 360.023438 216.953125 347.429688 228.378906 C 347.308594 228.476562 347.167969 228.558594 347.050781 228.664062 C 334.863281 239.503906 318.777344 244.886719 302.527344 243.566406 C 286.273438 242.246094 271.265625 234.332031 260.992188 221.671875 C 258.808594 219.054688 256.859375 216.253906 255.15625 213.300781 C 250.085938 204.289062 247.425781 194.113281 247.429688 183.773438 C 247.429688 182.667969 247.496094 181.566406 247.640625 180.472656 L 247.640625 180.398438 L 248.851562 171.59375 C 254.570312 143.796875 279.019531 123.835938 307.398438 123.804688 Z M 24.546875 246.507812 L 227.871094 192.0625 C 227.871094 192.40625 228 192.738281 228.039062 193.0625 C 228.222656 194.625 228.542969 196.144531 228.8125 197.671875 C 229.128906 199.480469 229.421875 201.292969 229.859375 203.066406 C 230.230469 204.546875 230.71875 205.988281 231.167969 207.4375 C 231.617188 208.886719 231.910156 210.21875 232.40625 211.554688 L 29.707031 265.886719 Z M 59.53125 278.582031 L 241.964844 229.683594 C 242.09375 229.867188 242.230469 230.027344 242.363281 230.207031 L 163.804688 523.59375 L 125.164062 523.59375 Z M 587.253906 543.585938 L 587.253906 583.5625 L 27.542969 583.5625 L 27.542969 543.585938 Z M 587.253906 543.585938 " style=" stroke:none;fill-rule:nonzero;fill:rgb(0%,0%,0%);fill-opacity:1;" />
</g>
</svg>